<svg id="Layer_1" data-name="Layer 1" xmlns="http://www.w3.org/2000/svg" viewBox="0 0 200 200"><defs><style>.cls-1{fill:#e58325;}.cls-2{fill:#1d65a3;}</style></defs><circle class="cls-1" cx="86.89" cy="77.05" r="8.2"/><circle class="cls-1" cx="114.75" cy="77.05" r="8.2"/><circle class="cls-1" cx="86.89" cy="124.59" r="8.2"/><circle class="cls-1" cx="114.75" cy="124.59" r="8.2"/><circle class="cls-1" cx="127.87" cy="100" r="8.2"/><circle class="cls-1" cx="73.77" cy="100" r="8.2"/><path class="cls-2" d="M163.12,88.43a25.32,25.32,0,1,1,25.31-25.32A25.35,25.35,0,0,1,163.12,88.43Zm0-42.63a17.32,17.32,0,1,0,17.31,17.31A17.34,17.34,0,0,0,163.12,45.8Z"/><path class="cls-2" d="M163.12,162.2a25.32,25.32,0,1,1,25.31-25.31A25.35,25.35,0,0,1,163.12,162.2Zm0-42.63a17.32,17.32,0,1,0,17.31,17.32A17.34,17.34,0,0,0,163.12,119.57Z"/><path class="cls-2" d="M36.88,88.43A25.32,25.32,0,1,1,62.2,63.11,25.35,25.35,0,0,1,36.88,88.43Zm0-42.63A17.32,17.32,0,1,0,54.2,63.11,17.34,17.34,0,0,0,36.88,45.8Z"/><path class="cls-2" d="M36.88,162.2A25.32,25.32,0,1,1,62.2,136.89,25.35,25.35,0,0,1,36.88,162.2Zm0-42.63A17.32,17.32,0,1,0,54.2,136.89,17.34,17.34,0,0,0,36.88,119.57Z"/><path class="cls-2" d="M100.82,198.26A25.31,25.31,0,1,1,126.13,173,25.33,25.33,0,0,1,100.82,198.26Zm0-42.62A17.31,17.31,0,1,0,118.13,173,17.33,17.33,0,0,0,100.82,155.64Z"/><path class="cls-2" d="M100.82,52.36a25.31,25.31,0,1,1,25.31-25.31A25.33,25.33,0,0,1,100.82,52.36Zm0-42.62a17.31,17.31,0,1,0,17.31,17.31A17.32,17.32,0,0,0,100.82,9.74Z"/></svg>