<svg xmlns="http://www.w3.org/2000/svg" viewBox="0 0 649 200"><defs><style>.cls-1{fill:#e58326;}.cls-2{fill:#1d65a3;}</style></defs><g id="Layer_2" data-name="Layer 2"><path class="cls-1" d="M58.43,105.61A61.43,61.43,0,0,1,44.63,107a38.29,38.29,0,0,1-15.58-3.11,34.13,34.13,0,0,1-12.2-9,41.86,41.86,0,0,1-8-14.46A61.92,61.92,0,0,1,6,60.87a60.87,60.87,0,0,1,2.9-19.51,41.89,41.89,0,0,1,8.15-14.52,34.26,34.26,0,0,1,12.56-9,40.7,40.7,0,0,1,15.94-3.08A54.63,54.63,0,0,1,57.85,16a28.11,28.11,0,0,1,8.94,3.41l-4.47,11a25.1,25.1,0,0,0-6.73-2.75A37.11,37.11,0,0,0,46,26.57a25.88,25.88,0,0,0-10.3,2.05,23.2,23.2,0,0,0-8.45,6.25A30.34,30.34,0,0,0,21.5,45.56a49.58,49.58,0,0,0-2.12,15.31,50.62,50.62,0,0,0,2.06,15.24,33.34,33.34,0,0,0,5.43,10.75,21.31,21.31,0,0,0,16.91,8.37,40.41,40.41,0,0,0,7-.55,12.27,12.27,0,0,0,4.31-1.33V64.67H39.43V53.92H67.75v48.37A34.08,34.08,0,0,1,58.43,105.61Z"/><path class="cls-1" d="M113.47,49.33a26.09,26.09,0,0,0-6.4-.72,36.29,36.29,0,0,0-5.56.42,16.44,16.44,0,0,0-4.59,1.33v55.25h-13V42.27a54.84,54.84,0,0,1,11.2-3.35,69.34,69.34,0,0,1,13.68-1.3c1.37,0,2.68,0,3.92.12s2.36.2,3.33.36Z"/><path class="cls-1" d="M178,72.22A48.72,48.72,0,0,1,176.15,86a33.84,33.84,0,0,1-5.37,11,25.46,25.46,0,0,1-8.76,7.31A26.52,26.52,0,0,1,129,97a32.24,32.24,0,0,1-5.44-11,49.46,49.46,0,0,1-1.84-13.8,48.83,48.83,0,0,1,1.84-13.74A32.3,32.3,0,0,1,129,47.55a25.9,25.9,0,0,1,8.84-7.28,28.86,28.86,0,0,1,24.16,0,25.16,25.16,0,0,1,8.76,7.28,33.92,33.92,0,0,1,5.37,10.93A48.1,48.1,0,0,1,178,72.22Zm-13-.12q0-10.87-3.78-17.3a13.2,13.2,0,0,0-22.7.06q-3.72,6.49-3.72,17.24t3.72,17.3a13.11,13.11,0,0,0,22.7,0Q165,82.85,165,72.1Z"/><path class="cls-1" d="M231.25,105.7a69.81,69.81,0,0,1-13.79,1.3q-12.75,0-19.36-5.7T191.49,83V39h13V83.21q0,12.62,13,12.62a37.56,37.56,0,0,0,6.7-.54A20.56,20.56,0,0,0,228.81,94V39h12.86v63.34A37.82,37.82,0,0,1,231.25,105.7Z"/><path class="cls-1" d="M295.72,105.61V61.11q0-6-3.36-9.3t-10-3.32a38.86,38.86,0,0,0-6.7.54,21.48,21.48,0,0,0-5.08,1.45v55.13h-13V42.27a59.26,59.26,0,0,1,11-3.35,66,66,0,0,1,13.68-1.3q13.47,0,20,5.79t6.55,16.43v45.77Z"/><path class="cls-1" d="M375.49,102.29a38,38,0,0,1-9.18,3.26A53.27,53.27,0,0,1,353.57,107a35.3,35.3,0,0,1-13.35-2.35,26.35,26.35,0,0,1-9.81-6.83A29.54,29.54,0,0,1,324.34,87a45.75,45.75,0,0,1-2-14.22,48.9,48.9,0,0,1,1.9-14,29.58,29.58,0,0,1,5.74-10.87,26.81,26.81,0,0,1,9.36-7,30.47,30.47,0,0,1,12.83-2.54,33.8,33.8,0,0,1,5.8.49A25.12,25.12,0,0,1,362.5,40V8.51h13Zm-13-52.11a17.38,17.38,0,0,0-4-1,32.43,32.43,0,0,0-5.19-.42,16.2,16.2,0,0,0-7.79,1.78,15.76,15.76,0,0,0-5.56,5,24.26,24.26,0,0,0-3.41,7.67,37.26,37.26,0,0,0-1.18,9.63q0,11.06,4.59,17.21t13.35,6.16a26.29,26.29,0,0,0,5.25-.54,18.11,18.11,0,0,0,3.92-1.15Z"/><path class="cls-1" d="M476.52,60.87a67.63,67.63,0,0,1-2.69,20,40.69,40.69,0,0,1-7.61,14.47,31.36,31.36,0,0,1-11.87,8.72A39.27,39.27,0,0,1,438.89,107a60.18,60.18,0,0,1-13.25-1.39,38.23,38.23,0,0,1-9.75-3.32V19.44a39.13,39.13,0,0,1,10-3.41,61.41,61.41,0,0,1,13-1.3,39.8,39.8,0,0,1,15.46,2.9,31,31,0,0,1,11.87,8.7,40.55,40.55,0,0,1,7.61,14.46A67.93,67.93,0,0,1,476.52,60.87Zm-13.53,0a59.67,59.67,0,0,0-1.78-15.55,32.2,32.2,0,0,0-4.89-10.69,19.29,19.29,0,0,0-7.43-6.19,21.84,21.84,0,0,0-9.27-2,35.54,35.54,0,0,0-5.8.45,16.45,16.45,0,0,0-4.47,1.3V93.48a13.73,13.73,0,0,0,4.23,1.26,35.18,35.18,0,0,0,6,.49,21.85,21.85,0,0,0,9.27-2A19.2,19.2,0,0,0,456.32,87a32.14,32.14,0,0,0,4.89-10.68A59.4,59.4,0,0,0,463,60.87Z"/><path class="cls-1" d="M538.05,102.29a37.42,37.42,0,0,1-9.87,3.32A61.29,61.29,0,0,1,515,107q-13.89,0-20.8-5.52t-6.91-15.43q0-6.89,3.29-11.23A22.35,22.35,0,0,1,499.28,68a44.92,44.92,0,0,1,12.23-3.5q6.86-1,14.16-1.45V58.87q0-6.33-3.65-8.87t-9.81-2.54a39.08,39.08,0,0,0-9.55,1.24,38.51,38.51,0,0,0-8.15,2.87l-3.38-9.3A61.63,61.63,0,0,1,501,39.1a52.11,52.11,0,0,1,12.53-1.48,39.22,39.22,0,0,1,10.27,1.24,19.71,19.71,0,0,1,7.73,3.89,17.15,17.15,0,0,1,4.83,7,28.68,28.68,0,0,1,1.69,10.47ZM525.67,72.1q-4.83.24-9.54.81a37.91,37.91,0,0,0-8.42,1.94,13.71,13.71,0,0,0-5.92,4,10.48,10.48,0,0,0-2.21,7,10.09,10.09,0,0,0,3.84,8.36q3.82,3,11.26,3a39.48,39.48,0,0,0,6.34-.51,18.72,18.72,0,0,0,4.65-1.24Z"/><path class="cls-1" d="M580.68,106a25.47,25.47,0,0,1-4.71.42q-8.51,0-13-4.86T558.4,87V49.09h-8.64V39h8.64V23.49l12.74-4V39H584V49.09H571.14V86.17q0,4.59,2.48,6.52a9.59,9.59,0,0,0,6.1,1.93,12.19,12.19,0,0,0,2.32-.24,6.3,6.3,0,0,0,2-.66V105A11.87,11.87,0,0,1,580.68,106Z"/><path class="cls-1" d="M644,102.29a37.38,37.38,0,0,1-9.88,3.32A61.13,61.13,0,0,1,621,107q-13.89,0-20.8-5.52t-6.92-15.43q0-6.89,3.29-11.23A22.45,22.45,0,0,1,605.2,68a44.92,44.92,0,0,1,12.23-3.5q6.86-1,14.16-1.45V58.87q0-6.33-3.65-8.87t-9.82-2.54a39.07,39.07,0,0,0-9.54,1.24,38.51,38.51,0,0,0-8.15,2.87l-3.38-9.3a61.3,61.3,0,0,1,9.87-3.17,52.05,52.05,0,0,1,12.53-1.48,39.28,39.28,0,0,1,10.27,1.24,19.71,19.71,0,0,1,7.73,3.89,17.15,17.15,0,0,1,4.83,7A28.89,28.89,0,0,1,644,60.2ZM631.59,72.1q-4.83.24-9.54.81a38.14,38.14,0,0,0-8.43,1.94,13.67,13.67,0,0,0-5.91,4,10.48,10.48,0,0,0-2.21,7,10.09,10.09,0,0,0,3.84,8.36q3.82,3,11.26,3a39.48,39.48,0,0,0,6.34-.51,18.72,18.72,0,0,0,4.65-1.24Z"/><path class="cls-2" d="M52.51,144.23v40.58h-7V144.23H35.15v-6.14H62.78v6.14Z"/><path class="cls-2" d="M96.49,167.26l-22.18,3.22c.33,3.15,1.41,5.51,3.21,7.07a10.29,10.29,0,0,0,7,2.35,22.1,22.1,0,0,0,5-.59,15.54,15.54,0,0,0,4.19-1.52l2,5.29a18,18,0,0,1-5,1.78,30.75,30.75,0,0,1-6.58.68,18.42,18.42,0,0,1-7.06-1.26,13.36,13.36,0,0,1-5.12-3.66,16.63,16.63,0,0,1-3.17-5.72,23.92,23.92,0,0,1-1.1-7.51,24.59,24.59,0,0,1,1-7.33,17.12,17.12,0,0,1,3-5.7,13.26,13.26,0,0,1,4.74-3.7,14.67,14.67,0,0,1,6.29-1.32q6.59,0,10.19,4.12c2.41,2.76,3.61,6.47,3.61,11.16Zm-6.43-3.75Q90,159,88,156.71a7,7,0,0,0-5.44-2.24,7.55,7.55,0,0,0-6.22,2.95c-1.56,2-2.39,4.77-2.47,8.43Z"/><path class="cls-2" d="M121.87,184.89a16.37,16.37,0,0,1-4.81.65,14.57,14.57,0,0,1-5.48-1.07,13,13,0,0,1-4.68-3.3,17,17,0,0,1-3.29-5.64,26.89,26.89,0,0,1,0-16.27,16.56,16.56,0,0,1,3.29-5.62,13,13,0,0,1,4.68-3.25,14.75,14.75,0,0,1,5.48-1,16.69,16.69,0,0,1,4.84.64,13.12,13.12,0,0,1,3.67,1.72l-2.17,5.1a10.14,10.14,0,0,0-2.52-1.21,9.81,9.81,0,0,0-3-.46,7.72,7.72,0,0,0-3.24.71A7.41,7.41,0,0,0,112,158a11.69,11.69,0,0,0-1.88,3.81,22,22,0,0,0,0,11,11.72,11.72,0,0,0,1.91,3.81,7.42,7.42,0,0,0,5.92,2.93,9.69,9.69,0,0,0,5.49-1.67l2.17,5.23A13.46,13.46,0,0,1,121.87,184.89Z"/><path class="cls-2" d="M151.85,184.81V161.72a6.25,6.25,0,0,0-1.91-5,7.85,7.85,0,0,0-5.28-1.64,11,11,0,0,0-3.12.46,13,13,0,0,0-2.8,1.15v28.13H132V134.15h6.77v17.17a21.3,21.3,0,0,1,3.51-1.31,15.06,15.06,0,0,1,4-.55q5.87,0,9.15,3c2.2,2,3.29,4.88,3.29,8.66v23.69Z"/><path class="cls-2" d="M186.82,184.81V161.59a6.51,6.51,0,0,0-1.75-4.85,7.14,7.14,0,0,0-5.21-1.73,20,20,0,0,0-3.5.28,11.12,11.12,0,0,0-2.65.76v28.76h-6.77V151.76a31.92,31.92,0,0,1,5.72-1.75,34.63,34.63,0,0,1,7.13-.67q7,0,10.45,3t3.42,8.57v23.88Z"/><path class="cls-2" d="M230,167.39a25.53,25.53,0,0,1-1,7.2,17.52,17.52,0,0,1-2.81,5.73,13.06,13.06,0,0,1-4.56,3.81,13.84,13.84,0,0,1-17.22-3.81,16.81,16.81,0,0,1-2.84-5.73,25.9,25.9,0,0,1-1-7.2,25.58,25.58,0,0,1,1-7.17,16.94,16.94,0,0,1,2.84-5.7,13.58,13.58,0,0,1,4.61-3.8,15.09,15.09,0,0,1,12.61,0,13,13,0,0,1,4.56,3.8,17.66,17.66,0,0,1,2.81,5.7A25.21,25.21,0,0,1,230,167.39Zm-6.77-.06a17.84,17.84,0,0,0-2-9,6.88,6.88,0,0,0-11.84,0,21.89,21.89,0,0,0,0,18,6.83,6.83,0,0,0,11.84,0A18,18,0,0,0,223.27,167.33Z"/><path class="cls-2" d="M237.26,184.81V134.15h6.84v50.66Z"/><path class="cls-2" d="M280.68,167.39a25.52,25.52,0,0,1-1,7.2,17.52,17.52,0,0,1-2.81,5.73,13.06,13.06,0,0,1-4.56,3.81,13.84,13.84,0,0,1-17.22-3.81,16.81,16.81,0,0,1-2.84-5.73,25.9,25.9,0,0,1-1-7.2,25.58,25.58,0,0,1,1-7.17,16.94,16.94,0,0,1,2.84-5.7,13.58,13.58,0,0,1,4.61-3.8,15.09,15.09,0,0,1,12.61,0,13,13,0,0,1,4.56,3.8,17.66,17.66,0,0,1,2.81,5.7A25.21,25.21,0,0,1,280.68,167.39Zm-6.78-.06c0-3.78-.65-6.79-2-9a6.88,6.88,0,0,0-11.84,0,21.89,21.89,0,0,0,0,18,6.83,6.83,0,0,0,11.84,0A17.9,17.9,0,0,0,273.9,167.33Z"/><path class="cls-2" d="M314.23,184.69q0,7.14-3.81,10.9T300,199.34a27.82,27.82,0,0,1-6.75-.77,23.27,23.27,0,0,1-5.13-1.88l2-5.54a18.26,18.26,0,0,0,4.09,1.52,20.64,20.64,0,0,0,5.2.65c2.75,0,4.81-.73,6.16-2.19s2-3.61,2-6.44V182.1a14,14,0,0,1-3.16,1,17.77,17.77,0,0,1-3.61.39,15.1,15.1,0,0,1-5.83-1.1,12.07,12.07,0,0,1-4.51-3.23,15.7,15.7,0,0,1-2.93-5.22,21.44,21.44,0,0,1-1.07-7,22.35,22.35,0,0,1,1.23-7.83,15.25,15.25,0,0,1,3.39-5.48,13.36,13.36,0,0,1,5.23-3.25,20.68,20.68,0,0,1,6.72-1,27.59,27.59,0,0,1,6.27.67,20.8,20.8,0,0,1,4.92,1.75Zm-6.65-29a16.44,16.44,0,0,0-2.17-.6,13.32,13.32,0,0,0-2.81-.28,9.62,9.62,0,0,0-3.67.68,7.69,7.69,0,0,0-2.94,2.12,10.28,10.28,0,0,0-2,3.67,18.06,18.06,0,0,0-.71,5.41q0,5.73,2.39,8.57a8,8,0,0,0,6.4,2.83,13.07,13.07,0,0,0,3-.36,10.79,10.79,0,0,0,2.52-.87Z"/><path class="cls-2" d="M334.46,198.67H327.3l5-13.86L319.81,150h7.56l7.28,23.63c.16.59.33,1.21.48,1.86s.28,1.21.37,1.67c.12.61.23,1.17.31,1.7h.13a12.42,12.42,0,0,1,.25-1.76c.08-.51.19-1.07.33-1.67a16.09,16.09,0,0,1,.52-1.8L344.32,150h7.56Z"/><path class="cls-2" d="M394.57,171.71a14.6,14.6,0,0,1-1.07,5.71,12.3,12.3,0,0,1-3,4.35,13.42,13.42,0,0,1-4.77,2.79,19.12,19.12,0,0,1-6.31,1,28.36,28.36,0,0,1-6.22-.68,17.68,17.68,0,0,1-4.93-1.78l2.46-6.33a15.67,15.67,0,0,0,3.76,1.59,16.51,16.51,0,0,0,4.68.68,9.34,9.34,0,0,0,6-1.85,6.25,6.25,0,0,0,2.28-5.15,5.72,5.72,0,0,0-.58-2.63,7.27,7.27,0,0,0-1.58-2.06A11.83,11.83,0,0,0,383,165.7c-.86-.47-1.77-.91-2.71-1.33-1.35-.66-2.71-1.37-4.08-2.15a17.84,17.84,0,0,1-3.7-2.74,13,13,0,0,1-2.71-3.76,11.53,11.53,0,0,1-1.07-5.15,14.11,14.11,0,0,1,1-5.47,11.73,11.73,0,0,1,2.89-4.13,12.86,12.86,0,0,1,4.49-2.64,17.27,17.27,0,0,1,5.83-.93,22.32,22.32,0,0,1,5.82.7,15.48,15.48,0,0,1,4.23,1.75l-2.18,5.93a20.89,20.89,0,0,0-3.35-1.44,13.15,13.15,0,0,0-4.27-.71,8.2,8.2,0,0,0-5.37,1.72,5.88,5.88,0,0,0-2.1,4.81,5.35,5.35,0,0,0,.65,2.64,7.7,7.7,0,0,0,1.7,2.1,13.86,13.86,0,0,0,2.44,1.71,30.68,30.68,0,0,0,2.8,1.42c1.26.61,2.56,1.29,3.89,2a17.32,17.32,0,0,1,3.64,2.71,12.75,12.75,0,0,1,2.68,3.78A12,12,0,0,1,394.57,171.71Z"/><path class="cls-2" d="M429.86,167.39a25.52,25.52,0,0,1-1,7.2,17.71,17.71,0,0,1-2.8,5.73,13.1,13.1,0,0,1-4.57,3.81,13.86,13.86,0,0,1-17.22-3.81,16.8,16.8,0,0,1-2.83-5.73,25.53,25.53,0,0,1-1-7.2,25.21,25.21,0,0,1,1-7.17,16.92,16.92,0,0,1,2.83-5.7,13.52,13.52,0,0,1,4.62-3.8,15.07,15.07,0,0,1,12.6,0,13.07,13.07,0,0,1,4.57,3.8,17.85,17.85,0,0,1,2.8,5.7A25.21,25.21,0,0,1,429.86,167.39Zm-6.78-.06q0-5.67-2-9a6.89,6.89,0,0,0-11.85,0,21.89,21.89,0,0,0,0,18,6.84,6.84,0,0,0,11.85,0A18,18,0,0,0,423.08,167.33Z"/><path class="cls-2" d="M437.07,184.81V134.15h6.84v50.66Z"/><path class="cls-2" d="M473.1,184.86a36.82,36.82,0,0,1-7.2.68q-6.64,0-10.1-3T452.35,173V150h6.78v23.09q0,6.58,6.77,6.59a19.41,19.41,0,0,0,3.5-.29,10.18,10.18,0,0,0,2.43-.69V150h6.71v33.05A19.68,19.68,0,0,1,473.1,184.86Z"/><path class="cls-2" d="M500.78,185a13,13,0,0,1-2.46.22q-4.44,0-6.8-2.53t-2.37-7.64V155.32h-4.5V150h4.5V142l6.65-2.11V150h6.71v5.29H495.8v19.35a4.07,4.07,0,0,0,1.29,3.4,5,5,0,0,0,3.18,1,6,6,0,0,0,1.22-.13,3.37,3.37,0,0,0,1-.34v5.89A5.83,5.83,0,0,1,500.78,185Z"/><path class="cls-2" d="M516.56,139.7a3.88,3.88,0,0,1-1.16,2.85,3.93,3.93,0,0,1-2.84,1.15,3.89,3.89,0,0,1-2.83-1.15,4,4,0,0,1,5.67-5.69A3.89,3.89,0,0,1,516.56,139.7Zm-7.43,45.11V150H516v34.78Z"/><path class="cls-2" d="M552.58,167.39a25.52,25.52,0,0,1-1,7.2,17.52,17.52,0,0,1-2.81,5.73,13.06,13.06,0,0,1-4.56,3.81A13.84,13.84,0,0,1,527,180.32a16.81,16.81,0,0,1-2.84-5.73,25.9,25.9,0,0,1-1-7.2,25.58,25.58,0,0,1,1-7.17,16.94,16.94,0,0,1,2.84-5.7,13.58,13.58,0,0,1,4.61-3.8,15.09,15.09,0,0,1,12.61,0,13,13,0,0,1,4.56,3.8,17.66,17.66,0,0,1,2.81,5.7A25.21,25.21,0,0,1,552.58,167.39Zm-6.78-.06a17.84,17.84,0,0,0-2-9,6.88,6.88,0,0,0-11.84,0,21.89,21.89,0,0,0,0,18,6.83,6.83,0,0,0,11.84,0A18,18,0,0,0,545.8,167.33Z"/><path class="cls-2" d="M579.48,184.81V161.59a6.51,6.51,0,0,0-1.75-4.85,7.12,7.12,0,0,0-5.21-1.73,20.1,20.1,0,0,0-3.5.28,10.89,10.89,0,0,0-2.64.76v28.76H559.6V151.76a32.18,32.18,0,0,1,5.72-1.75,34.66,34.66,0,0,1,7.14-.67q7,0,10.44,3t3.42,8.57v23.88Z"/><path class="cls-2" d="M616,175.2a9.36,9.36,0,0,1-3.33,7.52q-3.33,2.82-9.56,2.82a22.78,22.78,0,0,1-5.78-.73,19.42,19.42,0,0,1-4.62-1.73l2.27-5.42a14.17,14.17,0,0,0,1.61.8,14.76,14.76,0,0,0,2.06.74,19.24,19.24,0,0,0,2.19.51,13.07,13.07,0,0,0,2.08.19,6.93,6.93,0,0,0,4.41-1.29,4.56,4.56,0,0,0,1.18-5.5,4.81,4.81,0,0,0-1.23-1.51,8.08,8.08,0,0,0-1.85-1.14c-.73-.32-1.52-.66-2.38-1-1.14-.44-2.26-.93-3.37-1.47a13.58,13.58,0,0,1-3-2,9.6,9.6,0,0,1-2.22-2.84,8.86,8.86,0,0,1-.87-4.13,9,9,0,0,1,3-7q3-2.72,8.63-2.71a20.92,20.92,0,0,1,5.56.67,17.2,17.2,0,0,1,4.21,1.75l-2.08,4.92a17.22,17.22,0,0,0-3.14-1.37,11.61,11.61,0,0,0-3.76-.68,5.83,5.83,0,0,0-4.1,1.28,4.12,4.12,0,0,0-1.38,3.16,4.19,4.19,0,0,0,1.6,3.48,8.79,8.79,0,0,0,1.85,1.14q1,.48,2.28.93c1.15.48,2.32,1,3.48,1.49a13.43,13.43,0,0,1,3.14,1.93,8.79,8.79,0,0,1,2.25,2.89A9.53,9.53,0,0,1,616,175.2Z"/></g></svg>